<?xml version="1.0" standalone="no"?>
<!DOCTYPE svg PUBLIC "-//W3C//DTD SVG 20010904//EN"
 "http://www.w3.org/TR/2001/REC-SVG-20010904/DTD/svg10.dtd">
<svg version="1.0" xmlns="http://www.w3.org/2000/svg"
 width="640.000000pt" height="640.000000pt" viewBox="0 0 640.000000 640.000000"
 preserveAspectRatio="xMidYMid meet">

<g transform="translate(0.000000,640.000000) scale(0.100000,-0.100000)"
fill="#000000" stroke="none">
<path d="M733 4681 c-79 -7 -112 -24 -150 -81 -23 -33 -23 -37 -23 -378 l0
-346 32 45 c61 83 121 132 219 178 127 59 226 81 369 81 255 0 355 -110 265
-293 -47 -97 -118 -137 -184 -102 -45 23 -71 12 -71 -29 0 -68 49 -74 140 -15
51 33 69 40 103 37 36 -3 43 -7 50 -33 5 -16 13 -38 18 -47 16 -31 -20 -57
-110 -79 -91 -22 -146 -46 -173 -76 -9 -10 -26 -28 -38 -40 -11 -13 -29 -23
-41 -23 -31 0 -79 53 -79 87 0 36 9 48 45 67 l29 15 -25 9 c-45 18 -62 47 -55
94 15 90 72 174 141 204 l30 13 -30 0 c-64 1 -171 -55 -225 -116 -42 -47 -76
-124 -85 -188 -7 -60 21 -149 58 -181 73 -64 311 -104 432 -74 117 30 181 57
217 91 21 20 38 43 38 52 0 9 14 39 31 67 49 79 69 143 69 216 0 83 -30 207
-81 331 -63 156 -52 234 41 302 108 78 254 34 320 -95 23 -45 25 -63 28 -199
5 -192 -14 -343 -64 -509 -13 -44 -24 -85 -24 -92 0 -19 59 -65 118 -91 74
-32 179 -33 210 0 45 47 52 86 52 269 0 95 5 191 11 213 31 111 217 185 315
125 44 -28 77 -99 82 -179 5 -66 -15 -198 -30 -207 -4 -3 -8 -12 -8 -19 0 -8
-11 -40 -26 -70 -14 -31 -22 -64 -19 -74 9 -30 91 -58 205 -71 130 -15 289 1
470 48 98 25 230 106 230 140 0 15 -182 222 -202 230 -4 2 -8 -21 -8 -50 0
-114 -49 -206 -127 -237 -20 -8 -61 -12 -107 -9 -98 5 -148 36 -191 123 -25
50 -30 73 -33 155 -5 110 15 224 52 306 36 78 140 174 189 174 22 0 138 -52
176 -80 16 -11 82 -91 147 -178 140 -186 251 -302 289 -302 36 0 79 24 133 73
41 39 49 42 97 41 72 -2 129 -35 149 -86 20 -48 8 -146 -25 -215 -28 -58 -88
-87 -214 -103 -94 -12 -124 -24 -265 -102 -192 -108 -437 -190 -615 -206 -85
-8 -214 3 -270 23 -72 26 -131 64 -186 119 l-64 64 -56 -62 c-32 -34 -75 -75
-98 -90 -50 -35 -141 -66 -193 -66 -70 0 -198 53 -258 105 -36 33 -68 47 -84
38 -7 -4 -51 -44 -97 -87 -86 -82 -200 -162 -260 -185 -19 -7 -43 -17 -54 -21
-80 -33 -252 -40 -370 -16 -189 39 -353 109 -417 179 l-38 40 0 -477 c0 -455
1 -479 20 -516 11 -21 34 -49 52 -62 l33 -23 2520 -3 c1686 -2 2532 1 2555 7
20 6 51 27 70 46 l35 36 3 466 3 466 -41 -46 c-26 -29 -65 -58 -105 -77 -54
-26 -74 -30 -143 -30 -87 0 -96 3 -217 61 -90 44 -194 131 -256 215 l-39 53
-46 -49 c-88 -94 -218 -131 -339 -95 -195 56 -348 214 -416 429 -46 143 -53
202 -54 438 0 169 3 230 13 240 6 6 12 18 12 25 0 31 70 122 112 146 93 54
164 42 220 -37 41 -59 78 -150 78 -192 0 -18 4 -36 10 -39 13 -8 13 -62 0 -70
-5 -3 -10 -19 -10 -35 0 -16 -4 -31 -9 -34 -5 -3 -11 -16 -14 -28 -3 -13 -12
-50 -20 -83 -9 -33 -21 -106 -28 -163 -14 -113 -5 -192 32 -264 37 -72 138
-98 227 -58 87 39 97 52 137 167 82 234 155 345 261 397 52 26 65 28 138 24
130 -8 248 -61 338 -152 22 -23 66 -86 99 -141 l59 -100 -3 455 c-2 513 2 483
-82 532 l-40 23 -2460 1 c-1353 1 -2492 -2 -2532 -5z m2920 -1415 c18 -7 47
-30 65 -50 63 -72 39 -192 -49 -236 -140 -72 -294 60 -235 201 34 81 135 121
219 85z m-926 -127 c153 -74 101 -299 -69 -299 -99 0 -168 64 -168 154 0 128
121 201 237 145z m-357 -21 c116 -59 123 -205 13 -276 -45 -30 -134 -30 -177
-1 -57 39 -71 67 -71 141 0 57 4 70 25 93 61 65 136 80 210 43z m-740 -202 c0
-13 7 -29 15 -36 10 -9 12 -17 6 -23 -12 -12 -60 -18 -83 -11 -22 7 -23 33 -3
41 9 3 15 13 14 22 -2 28 0 31 26 31 20 0 25 -5 25 -24z m-619 -36 c16 -9 19
-22 19 -75 0 -63 14 -91 31 -64 12 18 11 72 0 103 -12 30 5 48 37 39 15 -3 23
-16 28 -40 10 -52 -2 -164 -17 -175 -8 -5 -78 -7 -157 -6 -164 3 -162 2 -162
90 0 54 2 59 30 73 64 33 120 5 120 -61 0 -24 4 -34 13 -31 8 3 12 26 11 73
-1 79 8 94 47 74z m189 -10 c12 -12 20 -33 20 -55 l0 -36 30 23 c24 18 35 20
57 12 32 -11 42 -43 19 -60 -15 -10 -14 -12 5 -17 18 -5 20 -10 14 -34 -3 -15
-8 -30 -10 -32 -6 -6 -165 -7 -175 -1 -4 3 -9 48 -11 100 -4 122 8 143 51 100z
m224 -2 c10 -14 16 -44 16 -81 0 -42 3 -58 13 -55 6 3 14 20 17 39 4 28 10 35
32 37 23 3 28 -1 33 -25 11 -48 15 -54 26 -47 6 3 9 19 5 34 -6 32 13 54 41
48 12 -2 20 -15 23 -41 7 -52 26 -46 23 8 -2 37 1 45 18 50 13 4 28 0 41 -12
16 -14 19 -27 15 -63 -2 -25 -10 -58 -16 -73 l-11 -28 -154 3 c-85 2 -157 6
-161 10 -4 3 -11 51 -15 105 -6 72 -5 100 3 105 20 13 35 9 51 -14z m374 6
c19 -13 22 -24 22 -75 0 -36 4 -59 11 -59 6 0 9 7 5 15 -7 18 10 66 27 77 25
16 72 7 102 -19 33 -29 41 -87 14 -107 -8 -6 -18 -19 -22 -28 -5 -15 -19 -18
-89 -18 -46 0 -89 4 -97 9 -18 11 -33 203 -17 213 15 11 19 10 44 -8z m576
-263 c17 -7 17 -8 2 -24 -25 -24 -92 -23 -106 2 -7 14 -6 21 3 24 18 8 79 7
101 -2z m2885 0 c21 -14 5 -41 -24 -41 -29 0 -45 27 -24 41 8 5 19 9 24 9 6 0
16 -4 24 -9z m-2273 -25 c16 -12 19 -27 19 -94 -1 -113 1 -112 -161 -112 -120
0 -134 2 -134 17 0 10 12 27 27 38 23 19 25 25 16 51 -12 36 -7 60 14 68 26
10 53 -23 53 -65 0 -21 5 -41 11 -45 8 -5 10 15 8 67 l-4 74 30 0 c34 0 42
-19 44 -98 1 -34 5 -47 14 -44 8 2 12 26 12 68 0 87 12 103 51 75z m1395 -23
c5 -13 9 -55 9 -92 0 -72 -12 -96 -47 -89 -15 3 -19 17 -23 98 -4 73 -2 98 8
107 19 16 42 5 53 -24z m401 13 c4 -6 8 -39 8 -73 0 -71 14 -84 23 -22 7 50
14 58 60 66 29 4 40 1 61 -20 30 -31 35 -89 10 -125 -14 -20 -23 -22 -104 -22
-82 0 -91 2 -104 23 -9 13 -15 47 -15 85 0 34 -2 66 -6 71 -3 5 2 16 10 25 16
15 44 11 57 -8z m-1696 -8 c4 -13 6 -40 5 -60 -2 -47 3 -48 24 -4 19 39 55 53
98 37 35 -14 47 -47 47 -129 -1 -52 -5 -72 -21 -91 -22 -27 -68 -33 -93 -11
-26 21 -19 40 15 40 36 0 36 23 0 28 -13 2 -32 19 -44 40 l-22 37 -5 -35 c-4
-27 -10 -36 -28 -38 -27 -4 -29 1 -36 116 l-5 92 29 0 c21 0 31 -6 36 -22z
m442 10 c20 -20 16 -203 -5 -239 -38 -65 -149 -56 -178 14 -23 55 -2 107 43
107 23 0 24 -3 19 -38 -6 -45 6 -72 32 -72 27 0 32 23 31 120 -2 124 -3 120
23 120 13 0 28 -5 35 -12z m762 -7 c11 -21 12 -107 1 -156 l-6 -30 -290 -5
-289 -5 -6 -24 c-3 -13 -18 -34 -33 -45 -26 -19 -30 -19 -55 -5 -35 19 -35 43
1 47 35 4 30 26 -6 30 -29 4 -57 44 -57 82 0 32 27 78 50 85 51 16 95 -15 102
-73 5 -35 22 -27 29 13 7 44 16 53 56 61 27 5 37 1 63 -24 18 -18 30 -41 30
-56 0 -24 3 -26 50 -26 43 0 50 3 50 20 0 13 -7 20 -20 20 -33 0 -80 29 -80
49 0 27 5 28 67 20 46 -6 63 -14 82 -36 17 -20 26 -24 29 -14 13 40 76 65 108
43 20 -14 44 -57 44 -79 0 -13 5 -23 11 -23 8 0 10 21 7 70 -3 38 -3 72 0 75
13 12 52 3 62 -14z m337 -1 c-4 -14 0 -20 12 -20 50 0 73 -89 37 -142 -18 -27
-21 -28 -106 -28 -99 0 -109 6 -117 68 -6 46 10 82 37 82 23 0 40 -28 40 -65
0 -25 2 -26 48 -23 43 3 47 5 45 28 -2 14 -3 35 -4 47 -1 20 -36 38 -65 32
-23 -4 -34 3 -34 21 0 18 7 20 56 20 51 0 56 -2 51 -20z m761 -75 c2 -76 0
-92 -14 -102 -20 -15 -389 -19 -398 -5 -9 14 23 50 46 54 12 2 23 9 26 17 3
10 -2 12 -21 7 -31 -7 -57 15 -50 43 7 27 55 46 81 32 29 -15 62 -60 62 -83 0
-17 6 -19 57 -16 46 2 59 7 61 21 3 12 -3 17 -22 17 -56 0 -101 40 -74 66 10
9 26 10 62 3 56 -10 96 -42 96 -75 0 -13 5 -26 11 -30 9 -5 11 12 7 64 -3 39
-3 74 0 77 4 3 20 5 37 3 l30 -3 3 -90z m-3153 29 c15 -16 25 -39 25 -55 0
-22 5 -29 20 -29 26 0 36 24 23 53 -14 30 -6 47 23 47 34 0 58 -41 51 -86 -8
-49 -33 -74 -73 -74 -28 0 -36 -6 -55 -39 -23 -42 -59 -57 -91 -40 -28 15 -23
49 7 49 16 0 25 6 25 15 0 9 -9 15 -23 15 -46 0 -69 50 -53 116 13 56 81 71
121 28z m435 6 c29 -29 30 -75 2 -122 -13 -22 -24 -28 -49 -28 -28 0 -32 -3
-30 -22 2 -19 -4 -24 -27 -26 -26 -3 -28 -1 -22 22 6 25 4 26 -33 26 -35 0
-40 3 -50 31 -24 69 -7 125 36 117 13 -2 19 -15 23 -43 5 -40 5 -40 51 -43 53
-3 66 12 47 53 -8 19 -8 28 2 40 17 20 26 19 50 -5z m-750 -51 l0 -39 51 0 52
0 -7 50 -7 50 31 0 c25 0 33 -6 44 -32 23 -54 -12 -128 -61 -128 -18 0 -23 -5
-23 -24 0 -13 -7 -26 -15 -30 -24 -9 -46 5 -43 28 3 18 -3 21 -35 24 -43 4
-57 26 -57 90 0 41 8 56 30 64 25 9 40 -12 40 -53z"/>
<path d="M860 2761 c0 -12 5 -21 10 -21 6 0 10 6 10 14 0 8 -4 18 -10 21 -5 3
-10 -3 -10 -14z"/>
<path d="M1897 2766 c-6 -15 1 -26 15 -26 11 0 10 27 -1 34 -5 3 -11 0 -14 -8z"/>
<path d="M4875 2470 c-4 -6 -3 -16 3 -22 6 -6 12 -6 17 2 4 6 3 16 -3 22 -6 6
-12 6 -17 -2z"/>
<path d="M3170 2460 c0 -11 5 -20 10 -20 6 0 10 9 10 20 0 11 -4 20 -10 20 -5
0 -10 -9 -10 -20z"/>
<path d="M3620 2460 c0 -11 5 -20 10 -20 6 0 10 9 10 20 0 11 -4 20 -10 20 -5
0 -10 -9 -10 -20z"/>
<path d="M3794 2469 c-3 -6 -1 -16 5 -22 8 -8 11 -5 11 11 0 24 -5 28 -16 11z"/>
<path d="M4120 2460 c0 -11 5 -20 10 -20 6 0 10 9 10 20 0 11 -4 20 -10 20 -5
0 -10 -9 -10 -20z"/>
<path d="M2170 2466 c0 -8 5 -18 10 -21 6 -3 10 3 10 14 0 12 -4 21 -10 21 -5
0 -10 -6 -10 -14z"/>
<path d="M5298 3754 c-15 -15 -9 -144 9 -177 29 -57 55 -85 94 -103 35 -15 44
-16 80 -4 48 16 62 38 53 86 -8 42 -79 142 -123 174 -33 23 -100 38 -113 24z"/>
</g>
</svg>
